<?xml version="1.0" standalone="no"?>
<!DOCTYPE svg PUBLIC "-//W3C//DTD SVG 20010904//EN"
 "http://www.w3.org/TR/2001/REC-SVG-20010904/DTD/svg10.dtd">
<svg version="1.0" xmlns="http://www.w3.org/2000/svg"
 width="260.000000pt" height="218.000000pt" viewBox="0 0 260.000000 218.000000"
 preserveAspectRatio="xMidYMid meet">

<g transform="translate(0.000000,218.000000) scale(0.100000,-0.100000)"
fill="#000000" stroke="none">
<path d="M1580 2094 c-57 -16 -170 -40 -230 -50 -19 -3 -38 -8 -42 -10 -3 -2
-66 -15 -140 -29 -73 -14 -151 -30 -173 -35 -44 -11 -146 -31 -420 -84 -99
-20 -203 -42 -230 -50 -55 -17 -113 -64 -138 -111 -89 -174 -41 -478 102 -645
l30 -35 1 81 c0 74 -3 89 -37 160 -31 65 -38 92 -41 154 -5 97 11 155 53 197
46 46 88 44 239 -11 354 -130 519 -186 545 -186 16 0 59 7 97 15 130 28 789
164 984 203 l195 39 7 39 c3 22 4 60 1 86 l-6 47 -81 29 c-44 16 -92 33 -106
37 -23 6 -107 36 -155 56 -11 4 -38 13 -60 20 -22 7 -45 16 -50 20 -6 4 -48
21 -95 39 -102 37 -176 44 -250 24z"/>
<path d="M2270 1624 c-12 -4 -22 -41 -40 -140 -13 -74 -27 -137 -31 -139 -4
-3 -17 50 -29 118 -12 67 -25 125 -29 129 -4 4 -20 4 -36 -1 -24 -6 -29 -12
-27 -32 5 -40 72 -322 77 -327 3 -3 22 -1 42 4 l36 9 39 175 c21 96 38 183 38
193 0 17 -9 19 -40 11z"/>
<path d="M1895 1551 c-16 -10 -41 -37 -55 -62 -22 -38 -25 -56 -25 -139 0 -72
4 -103 18 -127 24 -46 43 -52 108 -41 46 9 59 16 78 43 31 46 44 95 26 101
-27 11 -48 -1 -58 -31 -5 -16 -14 -36 -20 -42 -15 -20 -55 -15 -67 6 -15 29
-12 166 5 207 12 30 19 35 42 32 21 -2 30 -11 37 -33 6 -16 11 -31 12 -33 4
-8 53 11 57 22 7 19 -19 86 -40 101 -25 19 -82 17 -118 -4z"/>
<path d="M446 1542 c-3 -3 -6 -223 -6 -489 l0 -484 30 16 c29 15 29 15 54 -22
l26 -37 2 469 c2 259 2 480 0 493 -2 12 -13 27 -24 33 -30 16 -76 28 -82 21z"/>
<path d="M1452 1462 c-13 -4 -23 -10 -23 -14 1 -5 1 -28 1 -53 0 -44 0 -44
-30 -38 -60 11 -100 -55 -100 -165 0 -74 22 -122 55 -122 15 0 36 5 48 12 12
7 38 13 57 13 l35 0 3 188 c3 199 4 193 -46 179z m-27 -241 c0 -70 -3 -86 -18
-95 -27 -17 -37 8 -37 90 0 72 11 97 40 92 12 -3 15 -20 15 -87z"/>
<path d="M1145 1401 l-80 -17 -3 -187 c-1 -103 -1 -187 2 -187 2 0 48 9 101
20 53 11 99 20 101 20 2 0 4 16 4 36 0 32 -2 36 -22 31 -13 -4 -42 -9 -65 -13
l-43 -7 0 42 c0 37 2 41 24 41 50 0 76 17 76 50 0 16 -3 30 -7 30 -5 -1 -27
-5 -50 -9 l-43 -8 0 43 c0 47 -4 45 85 62 36 7 40 11 43 40 4 38 -1 39 -123
13z"/>
<path d="M1698 1412 c-15 -6 -17 -19 -14 -96 4 -102 -7 -146 -35 -146 -18 0
-19 9 -19 116 0 102 -2 115 -16 110 -9 -3 -24 -6 -35 -6 -18 0 -19 -8 -19
-121 0 -149 5 -160 62 -148 23 6 47 18 54 27 8 11 13 12 14 5 0 -14 28 -17 54
-7 14 5 16 27 16 140 0 133 0 134 -22 133 -13 0 -31 -3 -40 -7z"/>
<path d="M2160 1185 c-75 -17 -230 -50 -450 -95 -102 -21 -305 -64 -452 -94
l-266 -55 -119 45 c-172 66 -202 76 -213 69 -16 -10 -12 -131 4 -144 7 -6 51
-25 96 -42 112 -40 131 -51 174 -99 46 -51 73 -111 86 -197 17 -107 -6 -190
-68 -246 -27 -25 -109 -20 -182 10 -23 10 -153 58 -395 147 -72 26 -91 37 -93
54 -4 27 -43 30 -67 6 -12 -13 -15 -32 -13 -87 l3 -71 55 -23 c30 -12 174 -66
320 -119 297 -108 331 -115 452 -83 40 10 100 23 133 29 33 6 112 23 175 37
63 14 144 32 180 40 36 8 88 18 115 22 67 11 437 86 553 113 86 19 98 25 141
67 62 60 92 137 99 248 4 75 -15 204 -37 252 -76 162 -123 231 -154 230 -12
-1 -47 -7 -77 -14z"/>
</g>
</svg>
